<svg width="41" height="21" viewBox="0 0 41 21" fill="none" xmlns="http://www.w3.org/2000/svg">
<path fill-rule="evenodd" clip-rule="evenodd" d="M12.9377 0.171074C13.6158 0.166136 14.2509 0.503018 14.627 1.06726L25.3613 17.1686C25.9778 18.0935 25.7279 19.3431 24.8031 19.9597C23.8782 20.5763 22.6286 20.3264 22.012 19.4015L12.9791 5.85215L6.24934 16.2724H12.6169C13.7285 16.2724 14.6296 17.1735 14.6296 18.2851C14.6296 19.3966 13.7285 20.2977 12.6169 20.2977H2.55357C1.81656 20.2977 1.13849 19.8949 0.786007 19.2477C0.433522 18.6004 0.462998 17.8123 0.862844 17.1931L11.2616 1.09177C11.6296 0.522104 12.2596 0.176011 12.9377 0.171074Z" fill="#FDFEFF"/>
<path opacity="0.5" fill-rule="evenodd" clip-rule="evenodd" d="M21.592 4.07347C22.5169 3.45688 23.7665 3.70681 24.3831 4.63169L32.7411 17.1687C33.3577 18.0935 33.1077 19.3431 32.1829 19.9597C31.258 20.5763 30.0084 20.3264 29.3918 19.4015L21.0338 6.86454C20.4172 5.93966 20.6671 4.69006 21.592 4.07347Z" fill="#FDFEFF"/>
<path opacity="0.2" fill-rule="evenodd" clip-rule="evenodd" d="M31.3947 7.70775C32.3196 7.09116 33.5692 7.34108 34.1858 8.26596L40.1209 17.1686C40.7375 18.0935 40.4875 19.3431 39.5627 19.9597C38.6378 20.5763 37.3882 20.3264 36.7716 19.4015L30.8365 10.4988C30.2199 9.57394 30.4698 8.32434 31.3947 7.70775Z" fill="#FDFEFF"/>
</svg>
